<?xml version="1.0" standalone="no"?><!DOCTYPE svg PUBLIC "-//W3C//DTD SVG 1.1//EN" "http://www.w3.org/Graphics/SVG/1.1/DTD/svg11.dtd"><svg t="1528188872672" class="icon" style="" viewBox="0 0 1024 1024" version="1.1" xmlns="http://www.w3.org/2000/svg" p-id="2704" xmlns:xlink="http://www.w3.org/1999/xlink" width="16" height="16"><defs><style type="text/css"></style></defs><path d="M851.231 562.872H562.898v288.38c0 28.104-22.796 50.875-50.896 50.875-28.104 0-50.896-22.771-50.896-50.875v-288.38H172.77c-28.126 0-50.896-22.77-50.896-50.874 0-28.091 22.771-50.871 50.896-50.871h288.332V172.745c0-28.093 22.796-50.872 50.896-50.872 28.104 0 50.896 22.784 50.896 50.872v288.383h288.338c28.125 0 50.896 22.779 50.896 50.871-0.004 28.104-22.771 50.87-50.896 50.87v0.003z m0 0" p-id="2705" fill="#ffffff"></path></svg>