<?xml version="1.0" encoding="UTF-8"?>
<svg width="74px" height="71px" viewBox="0 0 74 71" version="1.1" xmlns="http://www.w3.org/2000/svg" xmlns:xlink="http://www.w3.org/1999/xlink">
    <!-- Generator: Sketch 49 (51002) - http://www.bohemiancoding.com/sketch -->
    <title>视频 copy</title>
    <desc>Created with Sketch.</desc>
    <defs></defs>
    <g id="Page-1" stroke="none" stroke-width="1" fill="none" fill-rule="evenodd">
        <g id="视频-copy" fill="#323546" fill-rule="nonzero">
            <path d="M69.173913,0 L4.82608695,0 C2.0913044,0 0,2.09772725 0,4.84090909 L0,66.1590909 C0,68.9022728 2.09130432,71 4.82608695,71 L69.173913,71 C71.9086957,71 74,68.9022728 74,66.1590909 L74,4.84090909 C74,2.09772725 71.9086957,5.37448874e-16 69.173913,0 Z M55.1782609,3.22727268 L64.5086956,12.9090909 L52.1217391,12.9090909 L42.7913043,3.22727268 L55.1782609,3.22727268 Z M39.0913043,3.22727268 L48.4217391,12.9090909 L36.0347826,12.9090909 L26.7043479,3.22727268 L39.0913043,3.22727268 Z M23.0043478,3.22727268 L32.3347826,12.9090909 L19.9478261,12.9090909 L10.6173913,3.22727268 L23.0043478,3.22727268 Z M3.21739133,4.84090909 C3.21739133,3.87272728 3.86086956,3.22727275 4.82608695,3.22727268 L6.91739135,3.22727268 L16.2478261,12.9090909 L3.21739133,12.9090909 L3.21739133,4.84090909 Z M70.7826087,66.1590909 C70.7826087,67.1272727 70.1391304,67.7727272 69.173913,67.7727273 L4.82608695,67.7727273 C3.86086956,67.7727273 3.21739133,67.1272728 3.21739133,66.1590909 L3.21739133,16.1363636 L70.7826087,16.1363636 L70.7826087,66.1590909 Z M70.7826087,12.9090909 L68.2086957,12.9090909 L58.8782608,3.22727268 L69.173913,3.22727268 C70.1391304,3.22727268 70.7826087,3.8727272 70.7826087,4.84090909 L70.7826087,12.9090909 Z" id="Shape"></path>
            <path d="M30.8,58 C31.6,58 32.56,57.8368421 33.36,57.3473684 L51.6,46.5789474 C54.8,44.7842105 54.8,40.2157895 51.6,38.4210526 L33.36,27.6526316 C32.56,27.1631579 31.76,27 30.8,27 C28.24,27 26,28.3052632 26,31.0789473 L26,53.9210527 C26,56.6947369 28.24,58 30.8,58 Z M29.2,31.7315789 C29.2,30.7526315 30,30.1 30.8,30.1 C31.12,30.1 31.44,30.1 31.6,30.2631578 L49.84,41.0315789 C50.4799999,41.5210526 50.64,42.1736841 50.64,42.3368421 C50.64,42.6631579 50.64,43.3157895 49.84,43.6421053 L31.6,54.4105263 C31.2799999,54.5736842 31.12,54.5736842 30.8,54.5736842 C30,54.5736842 29.2,53.9210527 29.2,52.9421053 L29.2,31.7315789 Z" id="Shape"></path>
        </g>
    </g>
</svg>