<?xml version="1.0" encoding="UTF-8"?>
<svg width="23px" height="19px" viewBox="0 0 23 19" version="1.1" xmlns="http://www.w3.org/2000/svg" xmlns:xlink="http://www.w3.org/1999/xlink">
    <!-- Generator: Sketch 49 (51002) - http://www.bohemiancoding.com/sketch -->
    <title>消息 copy</title>
    <desc>Created with Sketch.</desc>
    <defs></defs>
    <g id="Page-1" stroke="none" stroke-width="1" fill="none" fill-rule="evenodd">
        <g id="消息-copy" transform="translate(11.500000, 9.500000) rotate(-360.000000) translate(-11.500000, -9.500000) " fill="#202330" fill-rule="nonzero">
            <path d="M22.0905802,8.41426687 L17.6534436,8.41426687 C17.1511823,8.41426687 16.7410518,8.83166964 16.7410518,9.34447874 L16.7410518,9.63367923 C16.7410518,10.1464883 17.1482104,10.5638911 17.6534436,10.5638911 L22.0876082,10.5638911 C22.5928414,10.5638911 23,10.1464883 23,9.63367923 L23,9.34447874 C23,8.83166964 22.5958134,8.41426687 22.0905802,8.41426687 Z M11.798682,0.4299483 C10.4196925,1.54500998 7.53094716,3.11027033 5.45354698,4.61590173 L5.45057502,4.61590173 C5.42679934,4.63080897 5.40302366,4.71428953 5.37924798,4.72919676 C5.13257528,4.86932483 5.02261276,5.25691312 3.68820262,5.25691312 L1.08476548,5.25691312 C0.416074428,5.25691312 0,5.57592809 0,6.29445712 L0,12.6747565 C0,13.3932856 0.380410896,13.7480779 1.08476548,13.7480779 L3.69711849,13.7480779 C5.0255847,13.7480779 5.13257526,14.1356662 5.37627601,14.2757942 C5.4000517,14.28772 5.42382738,14.374182 5.44760306,14.3861078 L5.45057502,14.3890893 C7.46259208,15.8917392 10.3691691,17.579239 11.7957101,18.6525604 C12.2236723,18.9745568 13.6531852,19.541032 13.6531852,17.546443 L13.6531852,1.44662218 C13.6561571,-0.547966742 12.2147564,0.0900631957 11.798682,0.4299483 Z M15.8940432,4.82758456 C16.1318,5.25095022 16.5954258,5.35828235 16.9372012,5.06610042 L20.5837964,1.9355797 C20.9255718,1.64339777 21.0087867,1.06499679 20.7740018,0.641631122 L20.6432356,0.403115263 C20.4084507,-0.0202504016 19.938881,-0.127582528 19.6000775,0.164599404 L15.9505104,3.29213869 C15.608735,3.58432062 15.5255201,4.1627216 15.760305,4.5890687 L15.8940432,4.82758456 Z M20.5837964,17.0634484 L16.9372012,13.9359091 C16.5954258,13.6437272 16.128828,13.7510594 15.8940432,14.1714436 L15.760305,14.4099594 C15.5225481,14.8333251 15.608735,15.4117261 15.9505104,15.7068894 L19.5971056,18.8344287 C19.938881,19.1266107 20.4054787,19.02226 20.6402636,18.5988943 L20.7740018,18.3603784 C21.0087867,17.9370128 20.9225998,17.3556304 20.5837964,17.0634484 Z" id="Shape"></path>
        </g>
    </g>
</svg>