<?xml version="1.0" encoding="UTF-8"?>
<svg width="12px" height="12px" viewBox="0 0 12 12" version="1.1" xmlns="http://www.w3.org/2000/svg" xmlns:xlink="http://www.w3.org/1999/xlink">
    <!-- Generator: Sketch 49 (51002) - http://www.bohemiancoding.com/sketch -->
    <title>警告2 copy 6</title>
    <desc>Created with Sketch.</desc>
    <defs></defs>
    <g id="Page-1" stroke="none" stroke-width="1" fill="none" fill-rule="evenodd">
        <g id="警告2-copy-6" fill="#D0021B" fill-rule="nonzero">
            <path d="M6,0 C2.69015,0 0,2.69015 0,6 C0,9.3239375 2.69015,12 6,12 C9.3239375,12 12,9.3239375 12,6 C12,2.69015 9.3239375,0 6,0 Z M6,7.1690125 C5.77465,7.1690125 5.59155,6.985925 5.59155,6.7746375 L5.59155,2.9014 C5.59155,2.6901375 5.77465,2.5211125 6,2.5211125 C6.2394375,2.5211125 6.422525,2.6901375 6.422525,2.9014 L6.422525,6.7746375 C6.422525,6.9859 6.239425,7.1690125 6,7.1690125 Z M6,9.3662 C5.77465,9.3662 5.605625,9.197175 5.605625,8.9859125 L5.605625,8.239425 C5.605625,8.0281625 5.77465,7.873225 6,7.873225 C6.22535,7.873225 6.40845,8.0281625 6.40845,8.239425 L6.40845,8.9859125 C6.40845,9.197175 6.22535,9.3662 6,9.3662 Z" id="Shape"></path>
        </g>
    </g>
</svg>